<svg width="17" height="19" viewBox="0 0 17 19" fill="none" xmlns="http://www.w3.org/2000/svg">
<path d="M3.10449 18.6807C2.15527 18.6807 1.4375 18.4375 0.951172 17.9512C0.464844 17.4707 0.22168 16.7617 0.22168 15.8242V6.73633C0.22168 5.79297 0.464844 5.08105 0.951172 4.60059C1.4375 4.12012 2.15527 3.87988 3.10449 3.87988H13.2295C14.1729 3.87988 14.8877 4.12012 15.374 4.60059C15.8662 5.08105 16.1123 5.79297 16.1123 6.73633V15.8242C16.1123 16.7617 15.8779 17.4707 15.4092 17.9512C14.9404 18.4375 14.2871 18.6807 13.4492 18.6807H3.10449ZM3.20996 16.9492H13.335C13.6338 16.9492 13.8828 16.8438 14.082 16.6328C14.2812 16.4219 14.3809 16.1025 14.3809 15.6748V6.87695C14.3809 6.44922 14.2695 6.12988 14.0469 5.91895C13.8301 5.70801 13.5195 5.60254 13.1152 5.60254H3.20996C2.7998 5.60254 2.48633 5.70801 2.26953 5.91895C2.05859 6.12988 1.95312 6.44922 1.95312 6.87695V15.6748C1.95312 16.1025 2.05859 16.4219 2.26953 16.6328C2.48633 16.8438 2.7998 16.9492 3.20996 16.9492ZM4.51953 4.24902C4.51953 3.56934 4.67773 2.95703 4.99414 2.41211C5.31641 1.86719 5.75 1.43359 6.29492 1.11133C6.8457 0.789062 7.46973 0.62793 8.16699 0.62793C8.8584 0.62793 9.47949 0.789062 10.0303 1.11133C10.5811 1.43359 11.0146 1.86719 11.3311 2.41211C11.6475 2.95703 11.8057 3.56934 11.8057 4.24902L10.1357 4.25781C10.1357 3.84766 10.0537 3.4873 9.88965 3.17676C9.72559 2.86035 9.49414 2.61426 9.19531 2.43848C8.90234 2.25684 8.55957 2.16602 8.16699 2.16602C7.77441 2.16602 7.42871 2.25684 7.12988 2.43848C6.83691 2.61426 6.60547 2.86035 6.43555 3.17676C6.27148 3.4873 6.18945 3.84766 6.18945 4.25781L4.51953 4.24902Z" fill="#748169"/>
</svg>
