<svg width="13" height="19" viewBox="0 0 13 19" fill="none" xmlns="http://www.w3.org/2000/svg">
<path d="M2.21973 18.1885C1.55176 18.1885 1.04492 18.0068 0.699219 17.6436C0.353516 17.2861 0.180664 16.7471 0.180664 16.0264V9.79492C0.180664 9.08008 0.353516 8.54395 0.699219 8.18652C1.04492 7.8291 1.55176 7.65039 2.21973 7.65039H10.4463C11.1143 7.65039 11.6211 7.8291 11.9668 8.18652C12.3125 8.54395 12.4854 9.08008 12.4854 9.79492V16.0264C12.4854 16.7471 12.3125 17.2861 11.9668 17.6436C11.6211 18.0068 11.1143 18.1885 10.4463 18.1885H2.21973ZM2.46582 16.6064H10.2002C10.3818 16.6064 10.5225 16.5508 10.6221 16.4395C10.7217 16.334 10.7715 16.1758 10.7715 15.9648V9.86523C10.7715 9.6543 10.7217 9.49609 10.6221 9.39062C10.5225 9.28516 10.3818 9.23242 10.2002 9.23242H2.46582C2.29004 9.23242 2.14941 9.28516 2.04395 9.39062C1.94434 9.49609 1.89453 9.6543 1.89453 9.86523V15.9648C1.89453 16.1758 1.94434 16.334 2.04395 16.4395C2.14941 16.5508 2.29004 16.6064 2.46582 16.6064ZM1.78906 8.38867V5.59375C1.78906 4.50977 2 3.60449 2.42188 2.87793C2.84961 2.14551 3.40918 1.59473 4.10059 1.22559C4.79199 0.856445 5.53613 0.671875 6.33301 0.671875C7.12988 0.671875 7.87402 0.856445 8.56543 1.22559C9.25684 1.59473 9.81348 2.14551 10.2354 2.87793C10.6631 3.60449 10.877 4.50977 10.877 5.59375V8.38867H9.2334V5.43555C9.2334 4.75 9.09863 4.17285 8.8291 3.7041C8.56543 3.22949 8.21387 2.86914 7.77441 2.62305C7.33496 2.37695 6.85449 2.25391 6.33301 2.25391C5.81152 2.25391 5.33105 2.37695 4.8916 2.62305C4.45215 2.86914 4.10059 3.22949 3.83691 3.7041C3.57324 4.17285 3.44141 4.75 3.44141 5.43555V8.38867H1.78906Z" fill="#748169"/>
</svg>
